<svg xmlns="http://www.w3.org/2000/svg" viewBox="0 0 64 64" xml:space="preserve"><path fill="#0A5078" d="M19 60a7 7 0 0 1-7-7V43a7 7 0 1 1 14 0v10a7 7 0 0 1-7 7zM45 60a7 7 0 0 1-7-7V43a7 7 0 1 1 14 0v10a7 7 0 0 1-7 7z"/><path fill="#00325A" d="M45 37h-3.592A6.989 6.989 0 0 0 38 43v10h7a7 7 0 0 0 7-7v-2a7 7 0 0 0-7-7zM22.592 37H19a7 7 0 0 0-7 7v2a7 7 0 0 0 7 7h7V43a6.989 6.989 0 0 0-3.408-6z"/><path fill="#FAB400" d="M30 20h4v9h-4z"/><path fill="#DC9600" d="M30 22.738c.64.165 1.308.262 2 .262s1.36-.097 2-.262V20h-4v2.738zM38 20h-2v-2h2c3.309 0 6-2.691 6-6v-2h-4V8h4c1.103 0 2 .897 2 2v2c0 4.411-3.589 8-8 8zM28 20h-2c-4.411 0-8-3.589-8-8v-2c0-1.103.897-2 2-2h4v2h-4v2c0 3.309 2.691 6 6 6h2v2z"/><path fill="#FAB400" d="M32 22a8 8 0 0 1-8-8V4h16v10a8 8 0 0 1-8 8z"/><path fill="#00A0C8" d="M41 6H23a1 1 0 0 1 0-2h18a1 1 0 0 1 0 2zM38 32H26a3 3 0 0 1 3-3h6a3 3 0 0 1 3 3z"/><path fill="#DC9600" d="M24 6h16v1H24z"/><path fill="#BE7800" d="m32.448 9.908 1.021 2.069 2.283.332a.5.5 0 0 1 .277.853l-1.652 1.61.39 2.274a.5.5 0 0 1-.725.527L32 16.5l-2.042 1.074a.5.5 0 0 1-.725-.527l.39-2.274-1.652-1.61a.5.5 0 0 1 .277-.853l2.283-.332 1.021-2.069a.5.5 0 0 1 .896-.001z"/><path fill="#FAB400" d="M56 17h-6a1 1 0 1 1 0-2h6a1 1 0 1 1 0 2zM51.999 24a.994.994 0 0 1-.599-.2l-4-3a.998.998 0 1 1 1.199-1.599l4 3a.998.998 0 0 1-.6 1.799zM55.999 27a.994.994 0 0 1-.599-.2l-1-.75a.998.998 0 1 1 1.199-1.599l1 .75a.998.998 0 0 1-.6 1.799zM44 27a1 1 0 0 1-1-1v-2a1 1 0 1 1 2 0v2a1 1 0 0 1-1 1z"/><g><path fill="#FAB400" d="M14 17H8a1 1 0 1 1 0-2h6a1 1 0 1 1 0 2zM12.001 24a.998.998 0 0 1-.601-1.799l4-3a.997.997 0 0 1 1.399.2.998.998 0 0 1-.2 1.399l-4 3a.99.99 0 0 1-.598.2zM8.001 27a.998.998 0 0 1-.601-1.799l1-.75a.998.998 0 1 1 1.199 1.599l-1 .75a.99.99 0 0 1-.598.2zM20 27a1 1 0 0 1-1-1v-2a1 1 0 1 1 2 0v2a1 1 0 0 1-1 1z"/></g><g><path fill="#0A5078" d="M45 36h-5a4 4 0 0 0-4 4h-8a4 4 0 0 0-4-4h-5a7 7 0 0 0-7 7v2a7 7 0 0 0 7 7h26a7 7 0 0 0 7-7v-2a7 7 0 0 0-7-7z"/></g><g><circle fill="#00A0C8" cx="44" cy="40" r="2"/></g><g><circle fill="#00A0C8" cx="44" cy="48" r="2"/></g><g><circle fill="#00A0C8" cx="40" cy="44" r="2"/></g><g><circle fill="#00A0C8" cx="48" cy="44" r="2"/></g><g><circle fill="#00325A" cx="20" cy="40" r="2"/></g><g><circle fill="#00325A" cx="20" cy="48" r="2"/></g><g><circle fill="#00325A" cx="16" cy="44" r="2"/></g><g><circle fill="#00325A" cx="24" cy="44" r="2"/></g><g><path fill="#C80A50" d="M33 48h-2a1 1 0 0 1 0-2h2a1 1 0 0 1 0 2z"/></g></svg>