<svg id="Icons" xmlns="http://www.w3.org/2000/svg" viewBox="0 0 512 512"><defs><style>.cls-5{fill:#dd8c29}.cls-6{fill:#efb732}.cls-7{fill:#962a11}.cls-12{fill:#c44a1a}.cls-14{fill:#ea792e}.cls-16{fill:#c2aacf}.cls-17{fill:#decee5}.cls-18{fill:#f4e6f4}.cls-19{fill:#de57ff}</style></defs><circle cx="256" cy="256" r="255.98" style="fill:#aa0dd1"/><path d="M0 256.24a255.63 255.63 0 0 0 103.44 205.32c113.54 84.25 273.87 60.52 358.12-53a254.76 254.76 0 0 0 49.93-136 76.89 76.89 0 0 1-14.24-6.88c-23.84-14.74-42-41.9-69.91-44.44-19.15-1.75-37.29 9.24-51.1 22.62s-24.87 29.51-39.4 42.12a112.53 112.53 0 0 1-157.7-10c-14.17-15.89-26.53-37.44-47.68-40-28.75-3.44-51.22 31.63-80 28.95-9.3-.87-17.72-5.66-26.73-8A54.5 54.5 0 0 0 0 256.24z" style="fill:#8d00af"/><path d="m255.49 283.31-41.42 154.6a19.52 19.52 0 0 1-23.89 13.81l-63.91-17.13a19.51 19.51 0 0 1-13.8-23.9l41.42-154.6a26.79 26.79 0 0 1 26.16-19.85 13.62 13.62 0 0 0 13.13-9.41l22-67.34-.53-.14a5.92 5.92 0 0 1-3.68-8.51l8.28-15.51a5.93 5.93 0 0 1 6.75-2.94l28.84 7.73a5.94 5.94 0 0 1 4.39 5.93l-.59 17.56a5.93 5.93 0 0 1-7.45 5.53l-.53-.14-14.6 69.33a13.62 13.62 0 0 0 6.68 14.72 26.75 26.75 0 0 1 12.75 30.26z" style="fill:#6b250c"/><path d="m255.49 283.31-41.42 154.6a19.52 19.52 0 0 1-23.89 13.81L144 439.35a19.51 19.51 0 0 1-13.79-23.9l39.86-148.76a20.12 20.12 0 0 1 24.65-14.25A13.65 13.65 0 0 0 207.9 243l26.38-83.65a.23.23 0 0 0-.17-.28 6.15 6.15 0 0 1-3.84-8.84l7.8-14.61 16.79 4.5a5.94 5.94 0 0 1 4.39 5.93l-.59 17.56a5.93 5.93 0 0 1-7.45 5.53l-.53-.14-14.6 69.33a13.62 13.62 0 0 0 6.68 14.72 26.75 26.75 0 0 1 12.73 30.26z" style="fill:#7a2b13"/><path class="cls-5" d="m270.76 101.18.86 3.2a5 5 0 0 1-3.49 6.05l-42.4 11.36a5 5 0 0 1-6.06-3.49l-.86-3.2a5 5 0 0 1 3.5-6.06l42.41-11.36a4.92 4.92 0 0 1 6.04 3.5z"/><path class="cls-6" d="m270.76 101.18.86 3.2a5 5 0 0 1-3.49 6.05L236.05 119a4.94 4.94 0 0 1-6-3.5l-.86-3.2a4.92 4.92 0 0 1 3.48-6l32.09-8.6a4.92 4.92 0 0 1 6 3.48z"/><ellipse class="cls-7" cx="231.98" cy="263.6" rx="9.81" ry="16.41" transform="rotate(-30 231.988 263.601)"/><ellipse class="cls-7" cx="240.56" cy="294.14" rx="11.29" ry="6.97" transform="rotate(-86.78 240.54 294.143)"/><path class="cls-7" d="M131 409.39h39.51a6.09 6.09 0 0 1 6.09 6.09 6.09 6.09 0 0 1-6.09 6.09H131v-12.18z" transform="rotate(15 153.157 413.56)"/><rect class="cls-7" x="183.55" y="420.37" width="22.6" height="12.17" rx="6.09" transform="rotate(15 194.849 426.44)"/><path class="cls-7" d="M243.94 177.66a5.1 5.1 0 0 1 3.67 6l-7.51 35.64a5.09 5.09 0 0 1-6.31 3.87l-1.91-.51a5.09 5.09 0 0 1-3.6-6.24l9.42-35.16a5.1 5.1 0 0 1 6.24-3.6z"/><path class="cls-6" d="m245.22 321.66-22.11 82.49-101.6-27.22 22.11-82.49 20.46-5.24 38-9.74 43.14 42.2z"/><path class="cls-5" d="m164.08 289.2-24.78 92.49-17.79-4.76 22.11-82.49 20.46-5.24z"/><path d="m240.12 340.69-20.2-5.41c-1.38-14.45-10.75-26.9-24.6-30.61s-28.18 2.38-36.61 14.21l-20.19-5.41-7.22 26.94 20.19 5.41c1.39 14.46 10.75 26.9 24.6 30.62s28.19-2.39 36.61-14.22l20.2 5.41z" style="fill:#fff"/><path transform="rotate(15 143.81 329.303)" style="fill:#ebd9ea" d="M134.59 315.37H153v27.89h-18.41z"/><ellipse cx="185.71" cy="340.55" rx="26.93" ry="24.78" transform="rotate(-75 185.71 340.549)" style="fill:#f39e22"/><ellipse cx="185.71" cy="340.55" rx="20.1" ry="18.5" transform="rotate(-75 185.71 340.549)" style="fill:#f9c744"/><rect class="cls-12" x="177.61" y="329.23" width="20.56" height="5.45" rx="2.72" transform="rotate(15 187.897 331.96)"/><rect class="cls-12" x="168.32" y="338.72" width="34.05" height="5.45" rx="2.72" transform="rotate(15 185.36 341.451)"/><path class="cls-12" d="M433 298.9a16.79 16.79 0 0 1-8.42 14.68l-6.31 3.65a16.83 16.83 0 0 1-23.81-7.76l-50.54-102.12 22.68-13.09 63.17 94.83a16.69 16.69 0 0 1 3.23 9.81z"/><path d="M433 298.9a16.79 16.79 0 0 1-2.65 2l-6.2 3.84a16.83 16.83 0 0 1-24-7l-49.28-94.43 15.77-9.1 63.17 94.83a16.69 16.69 0 0 1 3.19 9.86z" style="fill:#dd5e26"/><ellipse class="cls-14" cx="373.78" cy="220.28" rx="6.45" ry="13.67" transform="rotate(-34.19 373.745 220.275)"/><ellipse class="cls-14" cx="388.24" cy="241.58" rx="4.25" ry="9.01" transform="rotate(-34.19 388.21 241.576)"/><path d="M371.11 187.08a3.94 3.94 0 0 1 .39 3 3.88 3.88 0 0 1-1.84 2.41l-28.79 16.63a4 4 0 0 1-5.42-1.46 3.89 3.89 0 0 1-.39-3 4 4 0 0 1 1.84-2.41l28.8-16.62a4 4 0 0 1 5.41 1.45z" style="fill:#a583bb"/><path class="cls-16" d="M371.11 187.08a3.94 3.94 0 0 1 .39 3 3.88 3.88 0 0 1-1.84 2.41L347 205.56a4 4 0 1 1-4-6.86l22.64-13.07a4 4 0 0 1 5.47 1.45z"/><ellipse class="cls-17" cx="356.27" cy="194.99" rx="6.15" ry="2.16" transform="rotate(-30 356.27 195.002)"/><ellipse class="cls-17" cx="366.48" cy="189.1" rx="3.74" ry="1.32" transform="rotate(-30 366.472 189.096)"/><path class="cls-16" d="m325.41 104.46-42.8 24.71a13.52 13.52 0 0 0-4.95 18.47l23.63 40.92a13.51 13.51 0 0 0 8 6.26l22.71 6.35a11.28 11.28 0 0 0 8.65-1.09l16.94-9.78a11.23 11.23 0 0 0 5.26-6.89l6-22.94a13.48 13.48 0 0 0-1.37-10.17l-23.61-40.89a13.51 13.51 0 0 0-18.46-4.95zm29.11 48a4.76 4.76 0 0 1-1.74 6.51l-6.58 3.8a4.77 4.77 0 0 1-6.51-1.75 4.76 4.76 0 0 0-6.51-1.74l-7.28 4.2a4.76 4.76 0 0 0-1.74 6.51 4.77 4.77 0 0 1-1.75 6.51l-6.57 3.8a4.78 4.78 0 0 1-6.52-1.75l-20.15-34.95a4.19 4.19 0 0 1 1.53-5.72l9.64-5.56a4.19 4.19 0 0 1 3.3-.39l6.54 2a4.18 4.18 0 0 0 3.78-.71l3.82-2.21-3.23-5.59c.31-1 3.5-3.35 4.43-3.89l9.64-5.57a4.19 4.19 0 0 1 5.72 1.54z"/><path class="cls-17" d="m329.74 102-42.8 24.71a13.52 13.52 0 0 0-4.94 18.43l23.63 40.92a13.5 13.5 0 0 0 8.06 6.26l22.66 6.35a11.28 11.28 0 0 0 8.65-1.09l16.94-9.78a11.23 11.23 0 0 0 5.26-6.89l6-22.94a13.51 13.51 0 0 0-1.37-10.18l-23.63-40.88a13.51 13.51 0 0 0-18.46-4.91zm29.11 48a4.76 4.76 0 0 1-1.74 6.51l-6.58 3.8a4.77 4.77 0 0 1-6.51-1.75 4.76 4.76 0 0 0-6.51-1.74l-7.28 4.2a4.76 4.76 0 0 0-1.74 6.51 4.77 4.77 0 0 1-1.75 6.51l-6.57 3.8a4.78 4.78 0 0 1-6.52-1.75L293.5 141.1a4.19 4.19 0 0 1 1.53-5.72l9.64-5.56a4.19 4.19 0 0 1 3.3-.39l6.54 2a4.18 4.18 0 0 0 5.28-3.05l1.57-6.64a4.17 4.17 0 0 1 2-2.67l9.64-5.57a4.19 4.19 0 0 1 5.7 1.5z"/><ellipse class="cls-18" cx="346.63" cy="116.47" rx="5.09" ry="10.78" transform="rotate(-30 346.63 116.48)"/><ellipse class="cls-18" cx="357.06" cy="134.53" rx="3.75" ry="7.94" transform="rotate(-30 357.052 134.532)"/><ellipse class="cls-18" cx="291.67" cy="130.36" rx="8.79" ry="4.15" transform="rotate(-30 291.672 130.353)"/><rect class="cls-16" x="333.11" y="170.97" width="24.8" height="16.06" rx="3.94" transform="rotate(-30 345.517 179.001)"/><rect class="cls-19" x="181.21" y="49.15" width="9.49" height="60.66" rx="4.74" transform="rotate(-45 185.942 79.48)"/><rect class="cls-19" x="166.02" y="81.96" width="9.49" height="49.06" rx="4.74" transform="rotate(-60 170.764 106.489)"/><rect class="cls-19" x="208.22" y="39.77" width="9.49" height="49.06" rx="4.74" transform="rotate(150 212.961 64.297)"/></svg>